Coordinates
version=1
nRows=8
nColumns=33
inDegrees=yes

Units are S.I. units (second, meters, Newtons, ...)
Angles are in degrees.

endheader
time	ground_thorax_rot_x	ground_thorax_rot_y	ground_thorax_rot_z	ground_thorax_tx	ground_thorax_ty	ground_thorax_tz	clav_prot_r	clav_elev_r	scapula_abduction_r	scapula_elevation_r	scapula_upward_rot_r	scapula_winging_r	shoulder_elv_r	plane_of_elev_r	axial_rot_r	elbow_flexion_r	pro_sup_r	wrist_flex_r	wrist_dev_r	clav_prot_l	clav_elev_l	scapula_abduction_l	scapula_elevation_l	scapula_upward_rot_l	scapula_winging_l	shoulder_elv_l	plane_of_elev_l	axial_rot_l	elbow_flexion_l	pro_sup_l	wrist_flex_l	wrist_dev_l
      6.71000000	    -35.14955951	    -17.94736205	     23.26924429	    -88.42442548	    853.93811182	    -43.53478705	     26.12554565	    -45.00000000	     38.66697548	    -45.00000000	    -45.00000000	   1696.53053369	    794.44730516	     23.87526013	    179.99999979	    366.43894100	   -166.10770817	     18.95938484	     14.37176578	      0.29775605	     32.10102701	    -32.02569206	    -45.00000000	    -45.00000000	   4405.81094420	  -4962.75314044	     27.80516554	     54.41904787	   1790.48908788	   -315.55182882	     11.87223527	    -23.34316242
      6.72000000	    -35.07905060	    -18.16044573	     23.48111231	    -87.41758628	    853.21101676	    -43.48810693	     26.43295664	    -45.00000000	     38.78058540	    -45.00000000	    -45.00000000	   1696.64961713	    794.40750913	     23.75919722	    179.99999979	    366.42224861	   -166.32089953	     18.98957837	     14.24245760	      0.03939821	     32.12878400	    -31.84227915	    -45.00000000	    -45.00000000	   4405.73960317	  -4962.69260479	     27.84827325	     54.05517423	   1790.55397664	   -315.56973381	     11.68346108	    -23.18501194
      6.73000000	    -34.89257977	    -18.57000688	     23.85295328	    -86.29701525	    852.58599528	    -43.45372336	     26.49971094	    -45.00000000	     39.03527598	    -45.00000000	    -45.00000000	   1696.54440381	    794.34078041	     23.80869069	    179.99999979	    366.39812937	   -166.62652970	     18.98554538	     14.27677466	     -0.08261775	     32.09959196	    -31.63165793	    -45.00000000	    -45.00000000	   4405.66157952	  -4962.57007251	     27.72553497	     54.07543850	   1790.47939366	   -315.60638137	     11.70973570	    -23.27255798
      6.74000000	    -34.88956967	    -18.61245068	     23.95339702	    -85.03848990	    852.06728296	    -43.44134567	     26.57627332	    -45.00000000	     38.97574467	    -45.00000000	    -45.00000000	   1696.64805164	    794.34711690	     23.81513947	    179.99999979	    366.27976568	   -167.04163889	     19.00617118	     14.30323235	     -0.22765139	     32.06355168	    -31.74431270	    -45.00000000	    -45.00000000	   4405.68291133	  -4962.62314829	     27.77049589	     54.20253063	   1790.54257283	   -315.68705454	     11.64503742	    -23.25688536
      6.75000000	    -34.79344717	    -18.95814679	     24.23684990	    -83.63984866	    851.65316134	    -43.45675479	     26.51876234	    -45.00000000	     39.18089019	    -45.00000000	    -45.00000000	   1696.67818101	    794.30886892	     23.83676947	    179.99999979	    366.20504822	   -167.50572079	     18.99417078	     14.35809920	     -0.32075968	     32.06548572	    -31.60668060	    -45.00000000	    -45.00000000	   4405.57609252	  -4962.38975474	     27.63533024	     54.29749513	   1790.46888347	   -315.76348994	     11.65145495	    -23.24895368
      6.76000000	    -34.76372141	    -18.91889662	     24.27302037	    -82.08693984	    851.33245972	    -43.50081407	     26.62865924	    -45.00000000	     39.09427375	    -45.00000000	    -45.00000000	   1696.69626075	    794.34934069	     23.99696467	    179.99999979	    366.05734042	   -168.08500785	     18.96764181	     14.41117459	     -0.29384840	     32.06693487	    -31.89066339	    -45.00000000	    -45.00000000	   4405.72250030	  -4962.60963365	     27.73154701	     54.59164420	   1790.62406202	   -315.93372122	     11.65463288	    -23.34560475
      6.77000000	    -34.58578942	    -19.40572913	     24.77731489	    -80.38387950	    851.09267227	    -43.57066841	     26.50511846	    -45.00000000	     39.36504601	    -45.00000000	    -45.00000000	   1696.82925813	    794.31417063	     23.82629339	    179.99999979	    365.97039198	   -168.62717066	     18.94946495	     14.49769037	     -0.50028560	     32.04086925	    -31.60006346	    -45.00000000	    -45.00000000	   4405.51282547	  -4962.28332659	     27.56075521	     54.69193773	   1790.61560664	   -316.00459311	     11.65344567	    -23.30782586
      6.78000000	    -34.80553989	    -18.97873409	     24.43519780	    -78.52166350	    850.91326773	    -43.66076404	     26.50172695	    -45.00000000	     38.92105613	    -45.00000000	    -45.00000000	   1696.92938257	    794.24569455	     24.23265746	    179.99999979	    365.84167359	   -169.38162730	     18.85589823	     14.54992956	      0.05841468	     32.16009284	    -32.21939728	    -45.00000000	    -45.00000000	   4405.81532581	  -4962.57640063	     27.95317557	     54.87672106	   1790.67911805	   -316.14605493	     11.69492405	    -23.53066245
